<svg width="38" height="38" viewBox="0 0 38 38" fill="none" xmlns="http://www.w3.org/2000/svg">
<path d="M32.9027 19.8403L22.2152 30.5278C21.9923 30.7507 21.6901 30.8758 21.375 30.8758C21.0599 30.8758 20.7577 30.7507 20.5348 30.5278C20.312 30.305 20.1868 30.0028 20.1868 29.6877C20.1868 29.3726 20.312 29.0703 20.5348 28.8475L29.1962 20.1877H5.9375C5.62256 20.1877 5.32051 20.0626 5.09781 19.8399C4.87511 19.6172 4.75 19.3151 4.75 19.0002C4.75 18.6852 4.87511 18.3832 5.09781 18.1605C5.32051 17.9378 5.62256 17.8127 5.9375 17.8127H29.1962L20.5348 9.15283C20.312 8.93 20.1868 8.62779 20.1868 8.31267C20.1868 7.99755 20.312 7.69534 20.5348 7.47252C20.7577 7.24969 21.0599 7.12451 21.375 7.12451C21.6901 7.12451 21.9923 7.24969 22.2152 7.47252L32.9027 18.16C33.0131 18.2703 33.1007 18.4013 33.1604 18.5454C33.2202 18.6896 33.2509 18.8441 33.2509 19.0002C33.2509 19.1562 33.2202 19.3108 33.1604 19.4549C33.1007 19.5991 33.0131 19.73 32.9027 19.8403Z" fill="white"/>
</svg>
