<svg width="42" height="41" viewBox="0 0 42 41" fill="none" xmlns="http://www.w3.org/2000/svg">
<path d="M35.8486 7.52909L5.14293 7.63241C4.80361 7.63356 4.47863 7.76655 4.23949 8.00214C4.00034 8.23773 3.86662 8.55661 3.86774 8.88864L3.93935 30.1714C3.94159 30.8354 4.21332 31.4714 4.69477 31.9393C5.17622 32.4073 5.82795 32.6689 6.50658 32.6666L34.6534 32.5719C35.3321 32.5696 35.982 32.3036 36.4603 31.8324C36.9386 31.3613 37.206 30.7235 37.2038 30.0594L37.1322 8.77671C37.1311 8.44468 36.9952 8.1267 36.7545 7.89273C36.5138 7.65875 36.1879 7.52795 35.8486 7.52909ZM20.5406 20.9059L8.44102 10.1252L32.5673 10.044L20.5406 20.9059ZM15.8537 20.1158L6.49279 28.5681L6.43612 11.7266L15.8537 20.1158ZM17.7529 21.8073L19.6778 23.5301C19.9146 23.7413 20.2237 23.8579 20.5441 23.8568C20.8645 23.8558 21.1729 23.7371 21.4082 23.5243L23.3215 21.7886L32.6252 30.0748L8.50842 30.156L17.7529 21.8073ZM25.2221 20.0842L34.583 11.6303L34.6396 28.475L25.2221 20.0842Z" fill="#AE3433"/>
</svg>
