<svg width="57" height="57" viewBox="0 0 57 57" fill="none" xmlns="http://www.w3.org/2000/svg">
<path d="M29.8921 4.64859C22.105 9.81882 20.2211 12.7192 23.8634 14.1063C26.6265 15.2412 41.447 5.40521 41.447 2.50484C41.447 -1.40435 38.0559 -0.773832 29.8921 4.64859Z" fill="white"/>
<path d="M35.1678 10.9539C31.7767 13.2238 28.6368 15.1153 28.5112 15.2414C27.8832 15.7458 34.4143 26.969 35.6702 27.7256C36.1726 28.1039 39.4382 26.4646 42.9549 24.3209L49.486 20.2856L45.718 13.6021C43.5829 10.0712 41.8245 7.04474 41.6989 7.04474C41.5733 7.04474 38.6846 8.81018 35.1678 10.9539Z" fill="white"/>
<path d="M14.4437 29.1129C2.63755 35.7963 0 37.814 0 40.0838C0 45.1279 3.89352 43.993 18.086 34.4092C30.1434 26.3386 31.7762 24.8254 30.3946 23.0599C29.013 21.2945 27.2546 21.925 14.4437 29.1129Z" fill="white"/>
<path d="M43.7077 26.0862C35.9207 31.2564 34.0367 34.1568 37.6791 35.5439C40.4422 36.6789 55.2627 26.8428 55.2627 23.9425C55.2627 20.0333 51.8716 20.6638 43.7077 26.0862Z" fill="white"/>
<path d="M29.5299 52.2599C28.9105 52.7264 28.2598 53.955 28.2598 55.2161C28.2598 57.2337 29.7566 56.9634 43.07 56.9634C57.3881 56.9634 57.2728 57.4859 56.896 54.5856C56.7482 53.5466 56.3967 52.6665 55.4331 52.2599C54.5402 51.8831 53.1421 51.948 50.3963 51.812C48.5527 51.7207 46.1665 51.6508 43.07 51.5585C35.7853 51.4324 30.846 51.2689 29.5299 52.2599Z" fill="white"/>
<path d="M33.1363 48.29C32.6908 48.6938 32.1201 49.8267 32.1201 50.9184C32.1201 52.665 33.0234 52.2052 42.5978 52.2052C52.8949 52.2052 53.051 52.5714 52.78 50.0605C52.6737 49.1611 52.12 48.2326 51.4271 47.8806C50.785 47.5545 50.7145 47.1916 48.7398 47.0738C47.3758 46.9925 45.2673 47.0581 42.7711 47.0738C37.5322 46.9646 34.0828 47.4321 33.1363 48.29Z" fill="white"/>
<line x1="23.2161" y1="23.4726" x2="27.0161" y2="29.1726" stroke="#111638"/>
</svg>
