<svg width="75" height="73" viewBox="0 0 75 73" fill="none" xmlns="http://www.w3.org/2000/svg">
<path d="M13.5007 1.05008C13.3063 1.08158 13.0147 1.25484 12.8527 1.44384C12.5611 1.7431 12.5449 2.70386 12.4639 27.3057L12.3829 52.8368L6.84214 52.9155C1.3338 52.9943 1.2852 52.9943 0.928775 53.3566L0.556152 53.7188V60.3654C0.556152 66.9175 0.556152 67.0277 0.928775 68.083C1.69022 70.1935 3.45613 71.8946 5.62706 72.6348L6.71253 72.9971H31.5811H56.4496L57.5837 72.6506C59.625 72.0206 61.0993 70.7448 62.0875 68.6973L62.606 67.642L62.6546 45.8752L62.687 24.1084L68.1953 24.0611L73.7036 24.0139L74.1411 23.5729L74.5947 23.1476V15.0678C74.5947 7.03516 74.5947 7.00366 74.2221 5.93265C73.4768 3.86937 71.8405 2.2471 69.6696 1.42809L68.6003 1.01859L41.2206 1.00283C26.1699 0.987083 13.679 1.00283 13.5007 1.05008ZM60.6456 4.98763C60.3378 5.58614 60.0138 6.43665 59.9328 6.90916C59.8356 7.44467 59.7708 18.4856 59.7708 37.1338C59.7708 58.5069 59.7222 66.6655 59.5926 67.0907C59.4792 67.4215 59.139 68.0358 58.8149 68.4453C57.211 70.5085 53.9708 70.6503 52.1401 68.713C50.9088 67.4215 50.9574 67.642 50.8602 60.1921L50.7792 53.5141L50.3904 53.2148C50.0178 52.9313 49.4994 52.9155 32.6989 52.9155H15.3801V28.424V3.93237H38.2883H61.1965L60.6456 4.98763ZM69.4428 4.49938C70.35 5.05064 71.1925 6.05865 71.4355 6.89341C71.5327 7.25567 71.5975 10.075 71.5975 14.2803V21.1001H67.126H62.6708L62.7194 14.2015C62.768 7.39742 62.768 7.30292 63.1406 6.53116C63.6266 5.50739 64.3557 4.76714 65.3601 4.29462C66.0568 3.96387 66.3484 3.91662 67.4177 3.97962C68.4545 4.02687 68.7947 4.12138 69.4428 4.49938ZM47.9765 61.5309C48.0251 67.0277 48.0413 67.3742 48.3815 68.2248C48.5759 68.7288 48.8837 69.343 49.0781 69.6108L49.4184 70.0833H28.3085C14.2622 70.0833 7.00415 70.0203 6.59912 69.9258C5.74047 69.6895 4.68741 68.8548 4.12037 67.957L3.63434 67.201L3.58574 61.4679L3.53714 55.7506H25.7325H47.9279L47.9765 61.5309Z" fill="#AE3433"/>
<path d="M32.3102 10.7835C29.2321 12.075 27.1745 13.0358 26.9963 13.2563C26.7209 13.587 26.7047 13.9335 26.7533 18.3436C26.8181 22.9899 26.8181 23.0844 27.2555 24.3602C27.7416 25.762 28.908 27.589 29.9125 28.534C30.2527 28.849 31.9862 30.2823 33.7683 31.7155C36.6197 34.0308 37.0571 34.3301 37.5756 34.3301C38.094 34.3301 38.5314 34.0308 41.3828 31.7155C43.1649 30.2823 44.8984 28.849 45.2386 28.534C46.2431 27.589 47.4096 25.762 47.8956 24.3602C48.333 23.0844 48.333 23.0057 48.3978 18.3279L48.4626 13.587L48.0738 13.1775C47.8308 12.9098 46.0163 12.075 42.7437 10.7205C40.0057 9.58649 37.6728 8.65722 37.5594 8.65722C37.4298 8.65722 35.0806 9.61799 32.3102 10.7835ZM41.6582 13.4138L45.5141 15.0361V18.1861C45.5141 22.5647 45.2224 23.9349 43.9264 25.5887C43.4079 26.2502 37.8186 31.0225 37.5756 31.0068C37.3164 31.0068 31.727 26.2345 31.2248 25.5887C29.9287 23.9192 29.6371 22.5962 29.6371 18.2806V15.0361L33.4929 13.4295C35.599 12.5475 37.446 11.8073 37.5756 11.8073C37.7052 11.8073 39.5521 12.5318 41.6582 13.4138Z" fill="#AE3433"/>
<path d="M38.4345 18.2966L36.4418 20.2182L35.8261 19.6669C34.4977 18.4226 33.8172 18.2809 33.0234 19.0369C32.1647 19.8717 32.3267 20.2812 34.1088 22.0609C35.7451 23.6675 36.2636 23.951 36.9602 23.6202C37.4786 23.3525 42.0797 18.9109 42.3713 18.3911C42.6954 17.7769 42.6467 17.4146 42.1769 16.8634C41.8367 16.4696 41.6423 16.3751 41.1077 16.3751C40.4758 16.3751 40.3462 16.4696 38.4345 18.2966Z" fill="#AE3433"/>
<path d="M22.0876 38.6145C21.2613 38.9925 21.0993 40.2052 21.7797 40.8667L22.1686 41.2605H37.5757H52.9828L53.3717 40.8667C54.0845 40.1895 53.8901 38.9925 53.0152 38.5987C52.4806 38.3625 22.5898 38.3782 22.0876 38.6145Z" fill="#AE3433"/>
<path d="M21.974 44.4263C21.4718 44.7099 21.1964 45.5604 21.3908 46.1274C21.731 47.0881 21.6986 47.0881 30.2852 47.0881H38.094L38.5639 46.6314C39.2281 45.9856 39.1633 45.0249 38.4018 44.4578C38.0616 44.2058 22.4115 44.1743 21.974 44.4263Z" fill="#AE3433"/>
</svg>
