<svg width="41" height="41" viewBox="0 0 41 41" fill="none" xmlns="http://www.w3.org/2000/svg">
<path d="M24.387 6.0744C24.4305 5.9118 24.5056 5.75936 24.608 5.62579C24.7105 5.49222 24.8382 5.38015 24.984 5.29596C25.1297 5.21178 25.2906 5.15714 25.4575 5.13517C25.6244 5.1132 25.794 5.12433 25.9565 5.16792C28.3318 5.78764 30.4988 7.02932 32.2346 8.76508C33.9704 10.5008 35.212 12.6679 35.8318 15.0432C35.8754 15.2057 35.8865 15.3753 35.8645 15.5422C35.8425 15.7091 35.7879 15.87 35.7037 16.0157C35.6195 16.1615 35.5075 16.2892 35.3739 16.3917C35.2403 16.4941 35.0879 16.5692 34.9253 16.6127C34.8171 16.6411 34.7057 16.6556 34.5938 16.6559C34.3114 16.6559 34.037 16.5626 33.8131 16.3906C33.5892 16.2186 33.4285 15.9774 33.3558 15.7046C32.8503 13.7656 31.8369 11.9965 30.4201 10.5796C29.0032 9.16275 27.2341 8.14937 25.2951 7.64393C25.1323 7.60061 24.9797 7.52563 24.846 7.42328C24.7122 7.32093 24.6 7.19321 24.5157 7.04744C24.4313 6.90166 24.3765 6.74069 24.3545 6.57373C24.3324 6.40676 24.3434 6.23709 24.387 6.0744ZM24.0138 12.7689C26.2224 13.3583 27.6414 14.7773 28.2308 16.9858C28.3035 17.2587 28.4642 17.4998 28.6881 17.6719C28.912 17.8439 29.1864 17.9372 29.4688 17.9372C29.5807 17.9369 29.6921 17.9224 29.8003 17.8939C29.9629 17.8504 30.1153 17.7753 30.2489 17.6729C30.3825 17.5705 30.4945 17.4427 30.5787 17.297C30.6629 17.1512 30.7175 16.9903 30.7395 16.8234C30.7615 16.6566 30.7504 16.487 30.7068 16.3244C29.8868 13.2558 27.7439 11.1129 24.6753 10.2929C24.5127 10.2495 24.3432 10.2385 24.1763 10.2606C24.0095 10.2827 23.8487 10.3374 23.703 10.4217C23.5573 10.5059 23.4297 10.618 23.3274 10.7516C23.225 10.8852 23.15 11.0376 23.1066 11.2002C23.0631 11.3628 23.0521 11.5323 23.0742 11.6991C23.0963 11.866 23.1511 12.0268 23.2353 12.1725C23.3196 12.3181 23.4317 12.4458 23.5653 12.5481C23.6988 12.6505 23.8513 12.7255 24.0138 12.7689ZM37.137 28.0398C36.8515 30.21 35.7857 32.202 34.1388 33.6438C32.4918 35.0856 30.3764 35.8786 28.1875 35.8747C15.4711 35.8747 5.12501 25.5286 5.12501 12.8122C5.12109 10.6233 5.91408 8.50785 7.35588 6.86092C8.79768 5.21399 10.7897 4.14821 12.9599 3.86264C13.5086 3.79564 14.0644 3.90791 14.5441 4.1827C15.0238 4.45749 15.4018 4.88006 15.6217 5.38733L19.0042 12.9387V12.9579C19.1725 13.3462 19.242 13.7702 19.2065 14.1919C19.171 14.6136 19.0316 15.02 18.8008 15.3747C18.7719 15.4179 18.7415 15.458 18.7095 15.498L15.375 19.4507C16.5746 21.8882 19.1243 24.4155 21.5939 25.6183L25.4921 22.3014C25.5304 22.2693 25.5705 22.2393 25.6122 22.2117C25.9666 21.9754 26.3744 21.8311 26.7986 21.7919C27.2228 21.7528 27.6501 21.82 28.0418 21.9875L28.0626 21.9971L35.6076 25.378C36.1157 25.5971 36.5393 25.9747 36.815 26.4545C37.0907 26.9343 37.2037 27.4905 37.137 28.0398ZM34.5938 27.7195C34.5938 27.7195 34.5826 27.7195 34.5761 27.7195L27.0488 24.3482L23.149 27.6651C23.1112 27.6971 23.0716 27.7271 23.0305 27.7548C22.6617 28.0008 22.2355 28.1469 21.7933 28.1789C21.3512 28.2109 20.9084 28.1277 20.508 27.9373C17.5083 26.4879 14.5182 23.5202 13.0672 20.5525C12.875 20.1551 12.7888 19.7148 12.8169 19.2743C12.8449 18.8337 12.9863 18.4079 13.2273 18.0381C13.2545 17.9946 13.285 17.9534 13.3186 17.9148L16.6563 13.9573L13.293 6.42995C13.2924 6.42356 13.2924 6.41712 13.293 6.41073C11.7399 6.61333 10.3139 7.37513 9.28205 8.55348C8.25022 9.73184 7.68332 11.2459 7.68751 12.8122C7.69345 18.2473 9.85517 23.4581 13.6984 27.3013C17.5416 31.1445 22.7524 33.3062 28.1875 33.3122C29.7528 33.3176 31.2665 32.7526 32.4455 31.723C33.6246 30.6934 34.3882 29.2697 34.5938 27.7179V27.7195Z" fill="#AE3433"/>
</svg>
