<svg width="102" height="76" viewBox="0 0 102 76" fill="none" xmlns="http://www.w3.org/2000/svg">
<path d="M28.7293 1.25232C27.6985 1.57845 25.9314 3.3314 25.6158 4.37094C25.4685 4.86013 25.3634 6.40925 25.3634 7.99914V10.7712H14.9289C7.33445 10.7712 4.24197 10.8324 3.61086 11.0158C3.06389 11.1789 2.34862 11.6477 1.69647 12.3C1.02328 12.9319 0.53942 13.6249 0.371122 14.1548C0.0345262 15.2555 0.013489 28.8511 0.350085 30.0129C0.644606 31.0525 1.94891 32.3978 3.21115 32.9481C4.47338 33.5188 30.0757 41.3459 30.6437 41.3459C31.8218 41.3459 32.5581 39.3688 31.6745 38.5942C31.4431 38.3904 25.5948 36.4948 18.6946 34.3953C11.7733 32.2755 5.69354 30.4002 5.18865 30.2168C3.37945 29.5441 3.48463 30.0333 3.48463 22.0839V15.0313L4.01056 14.5421L4.51546 14.0325H42.1931H79.8708L80.3757 14.5421L80.9017 15.0313V22.0635V29.0753L80.2705 29.5849C79.6184 30.1352 79.0293 30.3187 63.0621 35.2106C57.5924 36.882 52.9221 38.4108 52.6907 38.6146C51.8072 39.3892 52.5645 41.3459 53.7426 41.3459C54.3316 41.3459 79.9129 33.4984 80.9858 33.0092C82.2901 32.3774 83.4472 31.3786 83.8679 30.4614C84.2255 29.7072 84.2676 28.9938 84.2676 22.3081C84.2676 17.1512 84.1835 14.746 84.0152 14.1548C83.6786 13.0338 81.9325 11.342 80.7754 11.0158C80.1443 10.8324 77.0518 10.7712 69.4574 10.7712H59.0229V7.99914C59.0229 6.40925 58.9177 4.86013 58.7705 4.37094C58.4339 3.24987 56.6878 1.55806 55.5308 1.23193C54.3737 0.905804 29.8232 0.926189 28.7293 1.25232ZM55.131 4.75822C55.6359 5.22703 55.657 5.34933 55.657 8.01952V10.7712H42.1931H28.7293V8.01952C28.7293 5.34933 28.7504 5.22703 29.2552 4.75822L29.7601 4.24864H42.1931H54.6261L55.131 4.75822Z" fill="#AE3433"/>
<path d="M35.9661 34.1097L35.4402 34.6193L35.5033 41.5088L35.5664 48.3779L36.2817 49.6621C37.0811 51.0889 37.7543 51.7208 39.3321 52.5157C40.2367 52.9641 40.6785 53.0457 42.1931 53.0457C43.7289 53.0457 44.1286 52.9641 45.0752 52.4953C46.4637 51.8023 47.4945 50.8035 48.2519 49.4378L48.8199 48.3779L48.883 41.5088L48.9461 34.6193L48.4202 34.1097L47.8942 33.6001H42.1931H36.492L35.9661 34.1097ZM45.517 42.3445C45.4539 47.5218 45.4329 47.8683 45.0121 48.3983C44.1917 49.4786 43.5185 49.8047 42.1931 49.8047C40.8678 49.8047 40.1946 49.4786 39.3741 48.3983C38.9534 47.8683 38.9324 47.5218 38.8693 42.3445L38.8061 36.8614H42.1931H45.5801L45.517 42.3445Z" fill="#AE3433"/>
<path d="M4.01031 37.371L3.48438 37.8602V54.819C3.48438 67.0896 3.54749 71.9816 3.73682 72.5523C4.07342 73.6734 5.27254 74.9575 6.51374 75.5079L7.58664 75.9971H36.029C51.6596 75.9971 64.6186 75.9359 64.8079 75.8748C65.3338 75.6709 65.7967 74.611 65.6494 73.9384C65.3549 72.6542 67.3745 72.7358 36.2393 72.7358H7.88116L7.37626 72.2262L6.85033 71.737V54.7986V37.8602L6.3244 37.371C6.00884 37.0449 5.56706 36.8615 5.16735 36.8615C4.76765 36.8615 4.32586 37.0449 4.01031 37.371Z" fill="#AE3433"/>
<path d="M78.1458 37.2487C77.683 37.5952 77.6409 37.8398 77.5357 39.7558L77.4305 41.8553L76.2104 41.9979C74.9271 42.161 72.8234 42.8336 69.6888 44.0974C66.6174 45.3408 63.8825 45.2592 61.9892 43.8936C61.5895 43.6082 61.0004 43.384 60.7059 43.384C59.612 43.384 58.7284 44.7497 59.1912 45.7077C59.4647 46.2988 61.0004 47.2976 62.1996 47.6644C62.7045 47.8071 63.1673 47.9702 63.2094 47.9906C63.2514 48.0313 61.9261 51.0073 60.2852 54.6151L57.2769 61.1988L57.5083 62.6053C58.0342 65.5608 59.8855 67.966 62.2837 68.8425C64.8713 69.8005 68.2373 69.5763 70.362 68.2922C72.3185 67.1303 73.8332 64.6436 74.0856 62.1569C74.2118 61.0358 74.1698 60.9135 71.3508 54.7985C69.773 51.3742 68.4687 48.4594 68.4266 48.3167C68.4056 48.1333 68.8263 47.8887 69.5416 47.6848C70.1727 47.481 71.3508 47.0326 72.1502 46.6657C74.3801 45.6873 76.1893 45.2185 78.272 45.0758C80.8386 44.9331 83.0054 45.3408 86.1189 46.6249C87.4863 47.1753 88.9379 47.7256 89.3376 47.8275C89.7794 47.9294 90.0318 48.1129 90.0108 48.2963C89.9687 48.4594 88.6644 51.3742 87.1077 54.7782C85.4036 58.5083 84.2676 61.2192 84.2676 61.6065C84.2676 61.953 84.4149 62.7887 84.5832 63.4206C85.6771 67.4972 88.8537 69.6986 93.2716 69.4336C97.4369 69.1687 100.193 66.7023 100.929 62.6053L101.161 61.1988L98.1943 54.6966C96.5534 51.1092 95.2911 48.1333 95.3753 48.0517C95.4594 47.9906 96.0695 47.7256 96.7427 47.4606C98.2784 46.8695 99.4144 45.8911 99.4144 45.1369C99.4144 44.4643 98.3836 43.384 97.7525 43.384C97.5211 43.384 96.89 43.649 96.364 43.9751C94.2393 45.2796 91.799 45.3204 88.7696 44.0974C85.5088 42.7929 83.5313 42.161 82.1849 42.0387L80.9017 41.896V39.8781C80.9017 38.0028 80.8596 37.8194 80.3757 37.371C79.7657 36.7595 78.819 36.7187 78.1458 37.2487ZM67.8165 55.1451C68.8894 57.4891 69.7519 59.4459 69.7519 59.5274C69.7519 59.6293 67.9427 59.6905 65.7338 59.6905C61.9892 59.6905 61.7157 59.6701 61.8419 59.3236C62.3258 58.1006 65.6497 50.9257 65.7549 50.9257C65.818 50.9257 66.7436 52.8214 67.8165 55.1451ZM94.6179 54.9616C95.6277 57.163 96.5113 59.1402 96.5954 59.3236C96.7217 59.6701 96.4482 59.6905 92.7036 59.6905C90.4946 59.6905 88.6854 59.6293 88.6854 59.5274C88.6854 59.2828 92.5563 50.9257 92.6825 50.9257C92.7456 50.9257 93.6082 52.7398 94.6179 54.9616ZM70.3831 63.1556C70.3831 63.6041 69.7519 64.5417 69.0367 65.1532C66.8488 67.008 62.7255 66.3558 61.4212 63.9302C61.2529 63.6244 61.1267 63.2779 61.1267 63.1556C61.1267 63.0129 62.6624 62.9518 65.7549 62.9518C68.8473 62.9518 70.3831 63.0129 70.3831 63.1556ZM97.3107 63.1556C97.3107 63.6041 96.6796 64.5417 95.9643 65.1532C94.3655 66.4985 91.4834 66.6004 89.6111 65.357C88.9589 64.9086 88.0543 63.6652 88.0543 63.176C88.0543 63.0129 89.4217 62.9518 92.6825 62.9518C95.775 62.9518 97.3107 63.0129 97.3107 63.1556Z" fill="#AE3433"/>
<path d="M78.0617 48.7856L77.5357 49.2748V61.0155V72.7358H73.8542C70.2148 72.7358 70.1517 72.7358 69.6468 73.2453C69.3102 73.5511 69.1208 73.9791 69.1208 74.3664C69.1208 74.7537 69.3102 75.1817 69.6468 75.4875L70.1517 75.9971H79.2187H88.2858L88.7907 75.4875C89.4218 74.8964 89.4639 73.9791 88.9169 73.3269C88.5172 72.8581 88.412 72.8377 84.7094 72.7765L80.9017 72.7154V60.9951V49.2748L80.3758 48.7856C80.0602 48.4595 79.6184 48.276 79.2187 48.276C78.819 48.276 78.3772 48.4595 78.0617 48.7856Z" fill="#AE3433"/>
</svg>
