<svg width="55" height="55" viewBox="0 0 55 55" fill="none" xmlns="http://www.w3.org/2000/svg">
<path d="M40.3004 31.118L33.4254 27.6805C33.1548 27.5456 32.8534 27.4845 32.5516 27.5034C32.2498 27.5223 31.9584 27.6204 31.7066 27.7879L28.5506 29.8934C27.1018 29.0969 25.9095 27.9047 25.1131 26.4559L27.2185 23.2998C27.3861 23.0481 27.4842 22.7566 27.503 22.4549C27.5219 22.1531 27.4608 21.8517 27.326 21.5811L23.8885 14.7061C23.746 14.4183 23.5258 14.1762 23.2527 14.0073C22.9797 13.8383 22.6648 13.7492 22.3437 13.75C20.0645 13.75 17.8787 14.6554 16.267 16.2671C14.6554 17.8787 13.75 20.0645 13.75 22.3438C13.7557 27.3563 15.7494 32.1618 19.2938 35.7062C22.8382 39.2506 27.6437 41.2443 32.6562 41.25C33.7848 41.25 34.9023 41.0277 35.9449 40.5958C36.9876 40.164 37.9349 39.531 38.7329 38.7329C39.5309 37.9349 40.164 36.9876 40.5958 35.9449C41.0277 34.9023 41.25 33.7848 41.25 32.6562C41.2502 32.3369 41.1615 32.0239 40.9938 31.7522C40.826 31.4805 40.5859 31.2609 40.3004 31.118ZM32.6562 37.8125C28.5551 37.8079 24.6232 36.1768 21.7232 33.2768C18.8232 30.3768 17.192 26.4449 17.1875 22.3438C17.1872 21.1516 17.5999 19.9962 18.3555 19.0741C19.1111 18.1521 20.1629 17.5203 21.3318 17.2863L23.7982 22.2277L21.6992 25.3516C21.5424 25.5868 21.446 25.8572 21.4186 26.1386C21.3913 26.4201 21.4338 26.704 21.5424 26.965C22.7721 29.8877 25.0972 32.2128 28.0199 33.4426C28.2818 33.556 28.5678 33.6024 28.8521 33.5777C29.1364 33.5529 29.4101 33.4578 29.6484 33.3008L32.7873 31.2082L37.7287 33.6746C37.4929 34.8449 36.8584 35.8971 35.9333 36.6517C35.0083 37.4064 33.85 37.8166 32.6562 37.8125ZM27.5 5.15625C23.6424 5.15541 19.8503 6.15331 16.4928 8.05284C13.1353 9.95236 10.3268 12.6888 8.3406 15.9958C6.35442 19.3027 5.25826 23.0676 5.1588 26.9239C5.05934 30.7802 5.95997 34.5966 7.77304 38.0016L5.33456 45.317C5.13258 45.9227 5.10327 46.5726 5.24991 47.194C5.39656 47.8154 5.71337 48.3837 6.16483 48.8352C6.6163 49.2866 7.18457 49.6034 7.80597 49.7501C8.42737 49.8967 9.07733 49.8674 9.683 49.6654L16.9984 47.227C19.995 48.8208 23.3153 49.711 26.7073 49.83C30.0993 49.949 33.4738 49.2937 36.5747 47.9139C39.6756 46.534 42.4214 44.4658 44.6037 41.8663C46.786 39.2669 48.3474 36.2044 49.1694 32.9113C49.9914 29.6183 50.0524 26.1813 49.3477 22.8612C48.6431 19.5411 47.1913 16.4251 45.1026 13.7498C43.014 11.0745 40.3432 8.91026 37.2932 7.42125C34.2432 5.93224 30.8941 5.15764 27.5 5.15625ZM27.5 46.4062C24.1763 46.4085 20.9109 45.5333 18.034 43.8689C17.8233 43.7468 17.5891 43.6708 17.3469 43.646C17.1047 43.6212 16.8599 43.6481 16.6289 43.725L8.59374 46.4062L11.2728 38.3711C11.3501 38.1402 11.3774 37.8955 11.3529 37.6533C11.3285 37.4111 11.2529 37.1768 11.131 36.966C9.047 33.3629 8.21027 29.1727 8.75064 25.0455C9.29102 20.9183 11.1783 17.0848 14.1197 14.1397C17.0611 11.1946 20.8922 9.30245 25.0188 8.75687C29.1453 8.21128 33.3365 9.04272 36.9422 11.1222C40.548 13.2017 43.3667 16.413 44.9611 20.2579C46.5555 24.1029 46.8365 28.3665 45.7605 32.3875C44.6845 36.4084 42.3116 39.9618 39.0099 42.4966C35.7083 45.0313 31.6624 46.4056 27.5 46.4062Z" fill="#AE3433"/>
</svg>
