<svg width="24" height="23" viewBox="0 0 24 23" fill="none" xmlns="http://www.w3.org/2000/svg">
<path d="M21 11.5C21 11.6906 20.921 11.8734 20.7803 12.0082C20.6397 12.143 20.4489 12.2188 20.25 12.2188H12.75V19.4062C12.75 19.5969 12.671 19.7797 12.5303 19.9145C12.3897 20.0493 12.1989 20.125 12 20.125C11.8011 20.125 11.6103 20.0493 11.4697 19.9145C11.329 19.7797 11.25 19.5969 11.25 19.4062V12.2188H3.75C3.55109 12.2188 3.36032 12.143 3.21967 12.0082C3.07902 11.8734 3 11.6906 3 11.5C3 11.3094 3.07902 11.1266 3.21967 10.9918C3.36032 10.857 3.55109 10.7812 3.75 10.7812H11.25V3.59375C11.25 3.40313 11.329 3.22031 11.4697 3.08552C11.6103 2.95073 11.8011 2.875 12 2.875C12.1989 2.875 12.3897 2.95073 12.5303 3.08552C12.671 3.22031 12.75 3.40313 12.75 3.59375V10.7812H20.25C20.4489 10.7812 20.6397 10.857 20.7803 10.9918C20.921 11.1266 21 11.3094 21 11.5Z" fill="#AE3433"/>
</svg>
