<svg width="42" height="42" viewBox="0 0 42 42" fill="none" xmlns="http://www.w3.org/2000/svg">
<path d="M21 3.9375C17.6254 3.9375 14.3265 4.9382 11.5206 6.81305C8.71468 8.6879 6.52773 11.3527 5.23631 14.4705C3.94489 17.5882 3.607 21.0189 4.26536 24.3287C4.92372 27.6385 6.54876 30.6788 8.935 33.065C11.3212 35.4512 14.3615 37.0763 17.6713 37.7346C20.9811 38.393 24.4118 38.0551 27.5295 36.7637C30.6473 35.4723 33.3121 33.2853 35.187 30.4794C37.0618 27.6735 38.0625 24.3746 38.0625 21C38.0577 16.4762 36.2585 12.1391 33.0597 8.94027C29.8609 5.74146 25.5238 3.94228 21 3.9375ZM35.4375 21C35.4389 22.8522 35.0824 24.6873 34.3875 26.4042L27.0539 21.8941C26.7421 21.7017 26.3933 21.5771 26.0302 21.5283L22.2863 21.023C21.7704 20.9557 21.2461 21.0422 20.7791 21.2716C20.3122 21.501 19.9233 21.8631 19.6613 22.3125H18.2306L17.6072 21.023C17.4348 20.6639 17.1826 20.349 16.8698 20.1025C16.557 19.8559 16.1919 19.6842 15.8025 19.6005L14.49 19.3167L15.773 17.0625H18.5145C18.9581 17.0616 19.3943 16.9488 19.7827 16.7344L21.7924 15.6253C21.969 15.5269 22.1341 15.4091 22.2846 15.2742L26.6995 11.2809C27.1422 10.8843 27.4364 10.3485 27.5336 9.76217C27.6308 9.17579 27.5253 8.57379 27.2344 8.05547L27.1753 7.94883C29.6458 9.12023 31.7334 10.9682 33.1958 13.2783C34.6582 15.5884 35.4355 18.2659 35.4375 21ZM23.5118 6.78234L24.9375 9.33516L20.5226 13.3284L18.5145 14.4375H15.773C15.3115 14.4368 14.8581 14.5578 14.4583 14.7882C14.0585 15.0186 13.7265 15.3504 13.4958 15.75L12.0635 18.2487L10.3983 13.8124L12.1931 9.56812C13.7818 8.3406 15.6094 7.45844 17.5588 6.97816C19.5081 6.49788 21.5363 6.43006 23.5134 6.77906L23.5118 6.78234ZM6.56251 21C6.56032 18.8541 7.03908 16.735 7.9636 14.7984L9.82407 19.7646C9.97911 20.1758 10.2349 20.5415 10.568 20.8281C10.9011 21.1148 11.3008 21.3132 11.7305 21.4052L15.2463 22.1616L15.8714 23.4609C16.0883 23.9029 16.4245 24.2753 16.842 24.5363C17.2595 24.7972 17.7416 24.9362 18.2339 24.9375H18.4767L17.2906 27.6002C17.0816 28.0691 17.0146 28.5889 17.098 29.0954C17.1814 29.602 17.4115 30.0729 17.7598 30.45L17.7827 30.473L21 33.787L20.6817 35.4277C16.9113 35.3399 13.3244 33.7821 10.6866 31.0866C8.04873 28.3911 6.56876 24.7715 6.56251 21ZM23.392 35.2373L23.5774 34.2841C23.6536 33.8792 23.634 33.462 23.52 33.066C23.406 32.67 23.201 32.3062 22.9212 32.0037C22.9131 31.9964 22.9055 31.9888 22.8982 31.9807L19.6875 28.6683L21.9352 23.625L25.6791 24.1303L33.18 28.7437C32.0933 30.4504 30.6607 31.9101 28.9747 33.0286C27.2887 34.1471 25.3869 34.8996 23.392 35.2373Z" fill="#AE3433"/>
</svg>
